<svg version="1.1" viewBox="0.0 0.0 233.59055118110237 100.0" fill="none" stroke="none" stroke-linecap="square" stroke-miterlimit="10" xmlns:xlink="http://www.w3.org/1999/xlink" xmlns="http://www.w3.org/2000/svg"><clipPath id="p.0"><path d="m0 0l233.59055 0l0 100.0l-233.59055 0l0 -100.0z" clip-rule="nonzero"/></clipPath><g clip-path="url(#p.0)"><path fill="#000000" fill-opacity="0.0" d="m0 0l233.59055 0l0 100.0l-233.59055 0z" fill-rule="evenodd"/><path fill="#cfe2f3" d="m104.419945 16.158792l84.37795 0l0 26.582678l-84.37795 0z" fill-rule="evenodd"/><path stroke="#000000" stroke-width="1.0" stroke-linejoin="round" stroke-linecap="butt" d="m104.419945 16.158792l84.37795 0l0 26.582678l-84.37795 0z" fill-rule="evenodd"/><path fill="#000000" d="m117.494675 32.91013l0 -6.671875l1.328125 0l1.59375 4.71875q0.21875 0.671875 0.3125 0.984375q0.109375 -0.359375 0.359375 -1.0625l1.59375 -4.640625l1.1875 0l0 6.671875l-0.84375 0l0 -5.59375l-1.953125 5.59375l-0.796875 0l-1.921875 -5.6875l0 5.6875l-0.859375 0zm10.848526 -0.59375q-0.453125 0.390625 -0.875 0.546875q-0.421875 0.15625 -0.90625 0.15625q-0.796875 0 -1.21875 -0.390625q-0.421875 -0.390625 -0.421875 -1.0q0 -0.34375 0.15625 -0.640625q0.15625 -0.296875 0.421875 -0.46875q0.265625 -0.1875 0.59375 -0.28125q0.234375 -0.0625 0.71875 -0.109375q1.0 -0.125 1.46875 -0.28125q0 -0.171875 0 -0.21875q0 -0.5 -0.234375 -0.703125q-0.3125 -0.28125 -0.921875 -0.28125q-0.578125 0 -0.859375 0.203125q-0.28125 0.203125 -0.40625 0.71875l-0.796875 -0.109375q0.109375 -0.515625 0.359375 -0.828125q0.25 -0.328125 0.71875 -0.5q0.46875 -0.171875 1.09375 -0.171875q0.625 0 1.0 0.15625q0.390625 0.140625 0.578125 0.359375q0.1875 0.21875 0.25 0.5625q0.046875 0.203125 0.046875 0.75l0 1.09375q0 1.140625 0.046875 1.453125q0.0625 0.296875 0.21875 0.578125l-0.859375 0q-0.125 -0.25 -0.171875 -0.59375zm-0.0625 -1.828125q-0.453125 0.171875 -1.34375 0.296875q-0.5 0.078125 -0.71875 0.171875q-0.203125 0.09375 -0.3125 0.265625q-0.109375 0.171875 -0.109375 0.390625q0 0.328125 0.234375 0.546875q0.25 0.21875 0.734375 0.21875q0.46875 0 0.828125 -0.203125q0.375 -0.21875 0.5625 -0.578125q0.125 -0.265625 0.125 -0.8125l0 -0.296875zm2.1097412 -3.3125l0 -0.9375l0.8125 0l0 0.9375l-0.8125 0zm0 5.734375l0 -4.84375l0.8125 0l0 4.84375l-0.8125 0zm2.0567932 0l0 -4.84375l0.75 0l0 0.6875q0.53125 -0.796875 1.53125 -0.796875q0.4375 0 0.796875 0.171875q0.375 0.15625 0.546875 0.40625q0.1875 0.25 0.265625 0.609375q0.046875 0.21875 0.046875 0.796875l0 2.96875l-0.828125 0l0 -2.9375q0 -0.5 -0.09375 -0.75q-0.09375 -0.25 -0.34375 -0.390625q-0.234375 -0.15625 -0.5625 -0.15625q-0.515625 0 -0.90625 0.328125q-0.375 0.328125 -0.375 1.265625l0 2.640625l-0.828125 0zm10.920151 0l0 -0.609375q-0.453125 0.71875 -1.34375 0.71875q-0.578125 0 -1.0625 -0.3125q-0.484375 -0.328125 -0.765625 -0.890625q-0.265625 -0.578125 -0.265625 -1.3125q0 -0.734375 0.234375 -1.3125q0.25 -0.59375 0.734375 -0.90625q0.484375 -0.328125 1.078125 -0.328125q0.4375 0 0.78125 0.1875q0.34375 0.1875 0.5625 0.484375l0 -2.390625l0.8125 0l0 6.671875l-0.765625 0zm-2.59375 -2.40625q0 0.921875 0.390625 1.390625q0.390625 0.453125 0.9375 0.453125q0.53125 0 0.90625 -0.4375q0.375 -0.4375 0.375 -1.34375q0 -1.0 -0.390625 -1.453125q-0.375 -0.46875 -0.9375 -0.46875q-0.546875 0 -0.921875 0.453125q-0.359375 0.4375 -0.359375 1.40625zm4.640991 2.40625l0 -4.84375l0.734375 0l0 0.734375q0.28125 -0.515625 0.515625 -0.671875q0.25 -0.171875 0.53125 -0.171875q0.421875 0 0.84375 0.265625l-0.28125 0.765625q-0.296875 -0.171875 -0.609375 -0.171875q-0.265625 0 -0.484375 0.15625q-0.203125 0.15625 -0.296875 0.453125q-0.140625 0.4375 -0.140625 0.953125l0 2.53125l-0.8125 0zm3.1219635 -5.734375l0 -0.9375l0.8125 0l0 0.9375l-0.8125 0zm0 5.734375l0 -4.84375l0.8125 0l0 4.84375l-0.8125 0zm3.4005432 0l-1.828125 -4.84375l0.859375 0l1.03125 2.90625q0.171875 0.46875 0.3125 0.96875q0.109375 -0.375 0.3125 -0.921875l1.078125 -2.953125l0.84375 0l-1.84375 4.84375l-0.765625 0zm6.6328125 -1.5625l0.84375 0.109375q-0.1875 0.75 -0.734375 1.15625q-0.546875 0.40625 -1.390625 0.40625q-1.0625 0 -1.6875 -0.65625q-0.609375 -0.65625 -0.609375 -1.828125q0 -1.21875 0.625 -1.890625q0.625 -0.6875 1.625 -0.6875q0.984375 0 1.59375 0.671875q0.609375 0.65625 0.609375 1.859375q0 0.0625 0 0.21875l-3.609375 0q0.046875 0.796875 0.453125 1.21875q0.40625 0.421875 1.015625 0.421875q0.453125 0 0.765625 -0.234375q0.3125 -0.234375 0.5 -0.765625zm-2.6875 -1.328125l2.703125 0q-0.0625 -0.609375 -0.3125 -0.90625q-0.390625 -0.46875 -1.015625 -0.46875q-0.5625 0 -0.953125 0.375q-0.375 0.375 -0.421875 1.0zm8.732651 4.859375q-0.6875 -0.859375 -1.15625 -2.0q-0.46875 -1.15625 -0.46875 -2.390625q0 -1.078125 0.359375 -2.078125q0.40625 -1.140625 1.265625 -2.296875l0.578125 0q-0.546875 0.953125 -0.71875 1.359375q-0.28125 0.625 -0.4375 1.3125q-0.203125 0.84375 -0.203125 1.71875q0 2.1875 1.359375 4.375l-0.578125 0zm1.6063385 -1.96875l0 -6.671875l1.328125 0l1.59375 4.71875q0.21875 0.671875 0.3125 0.984375q0.109375 -0.359375 0.359375 -1.0625l1.59375 -4.640625l1.1875 0l0 6.671875l-0.84375 0l0 -5.59375l-1.953125 5.59375l-0.796875 0l-1.921875 -5.6875l0 5.6875l-0.859375 0zm8.239151 1.96875l-0.59375 0q1.359375 -2.1875 1.359375 -4.375q0 -0.859375 -0.1875 -1.703125q-0.15625 -0.6875 -0.4375 -1.3125q-0.171875 -0.40625 -0.734375 -1.375l0.59375 0q0.859375 1.15625 1.265625 2.296875q0.34375 1.0 0.34375 2.078125q0 1.234375 -0.46875 2.390625q-0.46875 1.140625 -1.140625 2.0z" fill-rule="nonzero"/><path fill="#cfe2f3" d="m104.419945 57.259056l84.37795 0l0 26.58268l-84.37795 0z" fill-rule="evenodd"/><path stroke="#000000" stroke-width="1.0" stroke-linejoin="round" stroke-linecap="butt" d="m104.419945 57.259056l84.37795 0l0 26.58268l-84.37795 0z" fill-rule="evenodd"/><path fill="#000000" d="m112.8215 74.01039l0 -6.671875l2.5 0q0.765625 0 1.21875 0.203125q0.46875 0.203125 0.734375 0.625q0.265625 0.421875 0.265625 0.875q0 0.421875 -0.234375 0.8125q-0.234375 0.375 -0.703125 0.609375q0.609375 0.171875 0.921875 0.609375q0.328125 0.421875 0.328125 1.0q0 0.46875 -0.203125 0.875q-0.1875 0.40625 -0.484375 0.625q-0.28125 0.21875 -0.734375 0.328125q-0.4375 0.109375 -1.0625 0.109375l-2.546875 0zm0.875 -3.875l1.453125 0q0.578125 0 0.84375 -0.078125q0.328125 -0.09375 0.5 -0.328125q0.171875 -0.234375 0.171875 -0.578125q0 -0.34375 -0.15625 -0.59375q-0.15625 -0.25 -0.453125 -0.34375q-0.296875 -0.09375 -1.015625 -0.09375l-1.34375 0l0 2.015625zm0 3.09375l1.671875 0q0.421875 0 0.59375 -0.03125q0.3125 -0.0625 0.515625 -0.1875q0.203125 -0.125 0.328125 -0.359375q0.140625 -0.25 0.140625 -0.578125q0 -0.375 -0.203125 -0.640625q-0.1875 -0.28125 -0.53125 -0.390625q-0.328125 -0.109375 -0.96875 -0.109375l-1.546875 0l0 2.296875zm8.4249115 0.1875q-0.453125 0.390625 -0.875 0.546875q-0.421875 0.15625 -0.90625 0.15625q-0.796875 0 -1.21875 -0.390625q-0.421875 -0.390625 -0.421875 -1.0q0 -0.34375 0.15625 -0.640625q0.15625 -0.296875 0.421875 -0.46875q0.265625 -0.1875 0.59375 -0.28125q0.234375 -0.0625 0.71875 -0.109375q1.0 -0.125 1.46875 -0.28125q0 -0.171875 0 -0.21875q0 -0.5 -0.234375 -0.703125q-0.3125 -0.28125 -0.921875 -0.28125q-0.578125 0 -0.859375 0.203125q-0.28125 0.203125 -0.40625 0.71875l-0.796875 -0.109375q0.109375 -0.515625 0.359375 -0.828125q0.25 -0.328125 0.71875 -0.5q0.46875 -0.171875 1.09375 -0.171875q0.625 0 1.0 0.15625q0.390625 0.140625 0.578125 0.359375q0.1875 0.21875 0.25 0.5625q0.046875 0.203125 0.046875 0.75l0 1.09375q0 1.140625 0.046875 1.453125q0.0625 0.296875 0.21875 0.578125l-0.859375 0q-0.125 -0.25 -0.171875 -0.59375zm-0.0625 -1.828125q-0.453125 0.171875 -1.34375 0.296875q-0.5 0.078125 -0.71875 0.171875q-0.203125 0.09375 -0.3125 0.265625q-0.109375 0.171875 -0.109375 0.390625q0 0.328125 0.234375 0.546875q0.25 0.21875 0.734375 0.21875q0.46875 0 0.828125 -0.203125q0.375 -0.21875 0.5625 -0.578125q0.125 -0.265625 0.125 -0.8125l0 -0.296875zm5.250366 0.65625l0.8125 0.09375q-0.125 0.84375 -0.671875 1.3125q-0.546875 0.46875 -1.34375 0.46875q-0.984375 0 -1.59375 -0.640625q-0.609375 -0.65625 -0.609375 -1.875q0 -0.78125 0.265625 -1.359375q0.265625 -0.59375 0.78125 -0.890625q0.53125 -0.296875 1.15625 -0.296875q0.796875 0 1.296875 0.40625q0.5 0.390625 0.640625 1.125l-0.796875 0.125q-0.109375 -0.484375 -0.40625 -0.71875q-0.28125 -0.25 -0.703125 -0.25q-0.609375 0 -1.0 0.4375q-0.390625 0.4375 -0.390625 1.40625q0 0.96875 0.375 1.421875q0.375 0.4375 0.984375 0.4375q0.46875 0 0.796875 -0.296875q0.328125 -0.296875 0.40625 -0.90625zm1.5234375 1.765625l0 -6.671875l0.8125 0l0 3.796875l1.9375 -1.96875l1.0625 0l-1.84375 1.796875l2.03125 3.046875l-1.015625 0l-1.59375 -2.46875l-0.578125 0.546875l0 1.921875l-0.8125 0zm7.8203125 0l0 -0.703125q-0.5625 0.8125 -1.53125 0.8125q-0.421875 0 -0.796875 -0.15625q-0.375 -0.171875 -0.5625 -0.421875q-0.171875 -0.25 -0.25 -0.609375q-0.046875 -0.234375 -0.046875 -0.765625l0 -3.0l0.828125 0l0 2.6875q0 0.640625 0.046875 0.875q0.078125 0.3125 0.328125 0.5q0.25 0.1875 0.609375 0.1875q0.375 0 0.703125 -0.1875q0.328125 -0.1875 0.453125 -0.515625q0.140625 -0.328125 0.140625 -0.953125l0 -2.59375l0.8125 0l0 4.84375l-0.734375 0zm2.0159912 1.859375l0 -6.703125l0.75 0l0 0.640625q0.265625 -0.375 0.59375 -0.5625q0.34375 -0.1875 0.8125 -0.1875q0.625 0 1.09375 0.328125q0.46875 0.3125 0.703125 0.90625q0.25 0.578125 0.25 1.265625q0 0.734375 -0.265625 1.328125q-0.265625 0.59375 -0.78125 0.921875q-0.5 0.3125 -1.0625 0.3125q-0.40625 0 -0.734375 -0.171875q-0.328125 -0.171875 -0.53125 -0.4375l0 2.359375l-0.828125 0zm0.75 -4.25q0 0.9375 0.375 1.390625q0.375 0.4375 0.921875 0.4375q0.546875 0 0.921875 -0.453125q0.390625 -0.46875 0.390625 -1.4375q0 -0.9375 -0.375 -1.390625q-0.375 -0.453125 -0.90625 -0.453125q-0.53125 0 -0.9375 0.484375q-0.390625 0.484375 -0.390625 1.421875zm10.170151 2.390625l0 -0.609375q-0.453125 0.71875 -1.34375 0.71875q-0.578125 0 -1.0625 -0.3125q-0.484375 -0.328125 -0.765625 -0.890625q-0.265625 -0.578125 -0.265625 -1.3125q0 -0.734375 0.234375 -1.3125q0.25 -0.59375 0.734375 -0.90625q0.484375 -0.328125 1.078125 -0.328125q0.4375 0 0.78125 0.1875q0.34375 0.1875 0.5625 0.484375l0 -2.390625l0.8125 0l0 6.671875l-0.765625 0zm-2.59375 -2.40625q0 0.921875 0.390625 1.390625q0.390625 0.453125 0.9375 0.453125q0.53125 0 0.90625 -0.4375q0.375 -0.4375 0.375 -1.34375q0 -1.0 -0.390625 -1.453125q-0.375 -0.46875 -0.9375 -0.46875q-0.546875 0 -0.921875 0.453125q-0.359375 0.4375 -0.359375 1.40625zm4.640991 2.40625l0 -4.84375l0.734375 0l0 0.734375q0.28125 -0.515625 0.515625 -0.671875q0.25 -0.171875 0.53125 -0.171875q0.421875 0 0.84375 0.265625l-0.28125 0.765625q-0.296875 -0.171875 -0.609375 -0.171875q-0.265625 0 -0.484375 0.15625q-0.203125 0.15625 -0.296875 0.453125q-0.140625 0.4375 -0.140625 0.953125l0 2.53125l-0.8125 0zm3.1219635 -5.734375l0 -0.9375l0.8125 0l0 0.9375l-0.8125 0zm0 5.734375l0 -4.84375l0.8125 0l0 4.84375l-0.8125 0zm3.4005432 0l-1.828125 -4.84375l0.859375 0l1.03125 2.90625q0.171875 0.46875 0.3125 0.96875q0.109375 -0.375 0.3125 -0.921875l1.078125 -2.953125l0.84375 0l-1.84375 4.84375l-0.765625 0zm6.6328125 -1.5625l0.84375 0.109375q-0.1875 0.75 -0.734375 1.15625q-0.546875 0.40625 -1.390625 0.40625q-1.0625 0 -1.6875 -0.65625q-0.609375 -0.65625 -0.609375 -1.828125q0 -1.21875 0.625 -1.890625q0.625 -0.6875 1.625 -0.6875q0.984375 0 1.59375 0.671875q0.609375 0.65625 0.609375 1.859375q0 0.0625 0 0.21875l-3.609375 0q0.046875 0.796875 0.453125 1.21875q0.40625 0.421875 1.015625 0.421875q0.453125 0 0.765625 -0.234375q0.3125 -0.234375 0.5 -0.765625zm-2.6875 -1.328125l2.703125 0q-0.0625 -0.609375 -0.3125 -0.90625q-0.390625 -0.46875 -1.015625 -0.46875q-0.5625 0 -0.953125 0.375q-0.375 0.375 -0.421875 1.0zm8.732651 4.859375q-0.6875 -0.859375 -1.15625 -2.0q-0.46875 -1.15625 -0.46875 -2.390625q0 -1.078125 0.359375 -2.078125q0.40625 -1.140625 1.265625 -2.296875l0.578125 0q-0.546875 0.953125 -0.71875 1.359375q-0.28125 0.625 -0.4375 1.3125q-0.203125 0.84375 -0.203125 1.71875q0 2.1875 1.359375 4.375l-0.578125 0zm1.6063385 -1.96875l0 -6.671875l2.5 0q0.765625 0 1.21875 0.203125q0.46875 0.203125 0.734375 0.625q0.265625 0.421875 0.265625 0.875q0 0.421875 -0.234375 0.8125q-0.234375 0.375 -0.703125 0.609375q0.609375 0.171875 0.921875 0.609375q0.328125 0.421875 0.328125 1.0q0 0.46875 -0.203125 0.875q-0.1875 0.40625 -0.484375 0.625q-0.28125 0.21875 -0.734375 0.328125q-0.4375 0.109375 -1.0625 0.109375l-2.546875 0zm0.875 -3.875l1.453125 0q0.578125 0 0.84375 -0.078125q0.328125 -0.09375 0.5 -0.328125q0.171875 -0.234375 0.171875 -0.578125q0 -0.34375 -0.15625 -0.59375q-0.15625 -0.25 -0.453125 -0.34375q-0.296875 -0.09375 -1.015625 -0.09375l-1.34375 0l0 2.015625zm0 3.09375l1.671875 0q0.421875 0 0.59375 -0.03125q0.3125 -0.0625 0.515625 -0.1875q0.203125 -0.125 0.328125 -0.359375q0.140625 -0.25 0.140625 -0.578125q0 -0.375 -0.203125 -0.640625q-0.1875 -0.28125 -0.53125 -0.390625q-0.328125 -0.109375 -0.96875 -0.109375l-1.546875 0l0 2.296875zm5.8155365 2.75l-0.59375 0q1.359375 -2.1875 1.359375 -4.375q0 -0.859375 -0.1875 -1.703125q-0.15625 -0.6875 -0.4375 -1.3125q-0.171875 -0.40625 -0.734375 -1.375l0.59375 0q0.859375 1.15625 1.265625 2.296875q0.34375 1.0 0.34375 2.078125q0 1.234375 -0.46875 2.390625q-0.46875 1.140625 -1.140625 2.0z" fill-rule="nonzero"/><path fill="#000000" fill-opacity="0.0" d="m188.7979 29.45013l21.732285 0l0 21.480316l21.732285 0" fill-rule="evenodd"/><path stroke="#000000" stroke-width="1.0" stroke-linejoin="round" stroke-linecap="butt" d="m188.7979 29.45013l21.732285 0l0 21.480316l18.305206 0" fill-rule="evenodd"/><path fill="#000000" stroke="#000000" stroke-width="1.0" stroke-linecap="butt" d="m228.83539 50.930447l-1.124588 1.1245842l3.0897675 -1.1245842l-3.0897675 -1.1245842z" fill-rule="evenodd"/><path fill="#000000" fill-opacity="0.0" d="m104.419945 29.45013l-28.125984 0" fill-rule="evenodd"/><path stroke="#000000" stroke-width="1.0" stroke-linejoin="round" stroke-linecap="butt" d="m104.419945 29.45013l-24.335983 0" fill-rule="evenodd"/><path stroke="#000000" stroke-width="1.0" stroke-linecap="butt" d="m76.79396 29.45013c0 -0.9085083 0.736496 -1.6449986 1.6450043 -1.6449986c0.9085083 0 1.6449966 0.73649025 1.6449966 1.6449986c0 0.9085083 -0.73648834 1.6450005 -1.6449966 1.6450005c-0.9085083 0 -1.6450043 -0.73649216 -1.6450043 -1.6450005z" fill-rule="nonzero"/><path fill="#000000" fill-opacity="0.0" d="m104.419945 70.556694l-28.125984 0" fill-rule="evenodd"/><path stroke="#000000" stroke-width="1.0" stroke-linejoin="round" stroke-linecap="butt" d="m104.419945 70.556694l-24.335983 0" fill-rule="evenodd"/><path stroke="#000000" stroke-width="1.0" stroke-linecap="butt" d="m76.79396 70.556694c0 -0.9085083 0.736496 -1.6450043 1.6450043 -1.6450043c0.9085083 0 1.6449966 0.736496 1.6449966 1.6450043c0 0.9085083 -0.73648834 1.6449966 -1.6449966 1.6449966c-0.9085083 0 -1.6450043 -0.73648834 -1.6450043 -1.6449966z" fill-rule="nonzero"/><path fill="#000000" fill-opacity="0.0" d="m188.7979 70.55039l21.70079 0" fill-rule="evenodd"/><path stroke="#000000" stroke-width="1.0" stroke-linejoin="round" stroke-linecap="butt" d="m188.7979 70.55039l21.70079 0" fill-rule="evenodd"/><path fill="#000000" fill-opacity="0.0" d="m210.53018 70.59134l0 -20.440945" fill-rule="evenodd"/><path stroke="#000000" stroke-width="1.0" stroke-linejoin="round" stroke-linecap="butt" d="m210.53018 70.59134l0 -20.440945" fill-rule="evenodd"/><path fill="#000000" fill-opacity="0.0" d="m0 51.339893l36.503937 -0.40944672" fill-rule="evenodd"/><path stroke="#000000" stroke-width="1.0" stroke-linejoin="round" stroke-linecap="butt" d="m0 51.339893l32.714176 -0.36693954" fill-rule="evenodd"/><path stroke="#000000" stroke-width="1.0" stroke-linecap="butt" d="m36.003967 50.936054c0.010189056 0.9084511 -0.7179947 1.6531563 -1.6264458 1.6633453c-0.9084511 0.010189056 -1.6531563 -0.7179947 -1.6633453 -1.6264458c-0.010189056 -0.9084511 0.7179947 -1.6531563 1.6264458 -1.6633453c0.9084511 -0.010189056 1.6531563 0.7179947 1.6633453 1.6264458z" fill-rule="nonzero"/><path fill="#000000" fill-opacity="0.0" d="m35.749344 50.34147l41.133858 -20.094486" fill-rule="evenodd"/><path stroke="#000000" stroke-width="1.0" stroke-linejoin="round" stroke-linecap="butt" d="m35.749344 50.34147l35.74276 -17.460857" fill-rule="evenodd"/><path fill="#000000" stroke="#000000" stroke-width="1.0" stroke-linecap="butt" d="m72.21711 34.364723l3.3525467 -3.476057l-4.8025665 0.5078373z" fill-rule="evenodd"/><path fill="#000000" fill-opacity="0.0" d="m39.5 42.735172l52.472443 0l0 20.377953l-52.472443 0z" fill-rule="evenodd"/><path fill="#000000" d="m43.921875 53.554546l0.828125 -0.078125q0.0625 0.5 0.28125 0.828125q0.21875 0.3125 0.671875 0.515625q0.453125 0.203125 1.015625 0.203125q0.515625 0 0.890625 -0.15625q0.390625 -0.15625 0.578125 -0.40625q0.1875 -0.265625 0.1875 -0.578125q0 -0.3125 -0.1875 -0.546875q-0.171875 -0.234375 -0.59375 -0.390625q-0.265625 -0.109375 -1.1875 -0.328125q-0.921875 -0.21875 -1.28125 -0.421875q-0.484375 -0.25 -0.71875 -0.609375q-0.234375 -0.375 -0.234375 -0.84375q0 -0.5 0.28125 -0.9375q0.296875 -0.4375 0.84375 -0.671875q0.546875 -0.234375 1.234375 -0.234375q0.734375 0 1.296875 0.25q0.578125 0.234375 0.875 0.703125q0.3125 0.453125 0.328125 1.046875l-0.84375 0.0625q-0.0625 -0.625 -0.46875 -0.953125q-0.390625 -0.328125 -1.15625 -0.328125q-0.796875 0 -1.171875 0.296875q-0.359375 0.296875 -0.359375 0.703125q0 0.359375 0.25 0.59375q0.265625 0.234375 1.328125 0.484375q1.078125 0.234375 1.484375 0.421875q0.578125 0.265625 0.859375 0.6875q0.28125 0.40625 0.28125 0.9375q0 0.53125 -0.3125 1.015625q-0.296875 0.46875 -0.875 0.734375q-0.5625 0.25 -1.28125 0.25q-0.90625 0 -1.515625 -0.265625q-0.609375 -0.265625 -0.96875 -0.78125q-0.34375 -0.53125 -0.359375 -1.203125zm7.2999115 2.140625l-1.46875 -4.84375l0.84375 0l0.765625 2.796875l0.296875 1.046875q0.015625 -0.078125 0.25 -1.0l0.765625 -2.84375l0.84375 0l0.71875 2.8125l0.25 0.921875l0.265625 -0.9375l0.828125 -2.796875l0.796875 0l-1.5 4.84375l-0.859375 0l-0.765625 -2.890625l-0.1875 -0.828125l-0.984375 3.71875l-0.859375 0zm5.8614807 -5.734375l0 -0.9375l0.8125 0l0 0.9375l-0.8125 0zm0 5.734375l0 -4.84375l0.8125 0l0 4.84375l-0.8125 0zm3.8536682 -0.734375l0.109375 0.71875q-0.34375 0.078125 -0.609375 0.078125q-0.453125 0 -0.703125 -0.140625q-0.234375 -0.140625 -0.34375 -0.359375q-0.09375 -0.234375 -0.09375 -0.984375l0 -2.78125l-0.609375 0l0 -0.640625l0.609375 0l0 -1.1875l0.8125 -0.5l0 1.6875l0.828125 0l0 0.640625l-0.828125 0l0 2.828125q0 0.359375 0.046875 0.46875q0.046875 0.09375 0.140625 0.15625q0.09375 0.046875 0.28125 0.046875q0.140625 0 0.359375 -0.03125zm3.9510345 -1.03125l0.8125 0.09375q-0.125 0.84375 -0.671875 1.3125q-0.546875 0.46875 -1.34375 0.46875q-0.984375 0 -1.59375 -0.640625q-0.609375 -0.65625 -0.609375 -1.875q0 -0.78125 0.265625 -1.359375q0.265625 -0.59375 0.78125 -0.890625q0.53125 -0.296875 1.15625 -0.296875q0.796875 0 1.296875 0.40625q0.5 0.390625 0.640625 1.125l-0.796875 0.125q-0.109375 -0.484375 -0.40625 -0.71875q-0.28125 -0.25 -0.703125 -0.25q-0.609375 0 -1.0 0.4375q-0.390625 0.4375 -0.390625 1.40625q0 0.96875 0.375 1.421875q0.375 0.4375 0.984375 0.4375q0.46875 0 0.796875 -0.296875q0.328125 -0.296875 0.40625 -0.90625zm1.5078125 1.765625l0 -6.671875l0.828125 0l0 2.390625q0.578125 -0.671875 1.453125 -0.671875q0.53125 0 0.921875 0.21875q0.40625 0.21875 0.578125 0.59375q0.171875 0.359375 0.171875 1.078125l0 3.0625l-0.828125 0l0 -3.0625q0 -0.625 -0.265625 -0.890625q-0.265625 -0.28125 -0.75 -0.28125q-0.375 0 -0.703125 0.1875q-0.3125 0.1875 -0.453125 0.515625q-0.125 0.3125 -0.125 0.890625l0 2.640625l-0.828125 0zm9.357651 1.96875q-0.6875 -0.859375 -1.15625 -2.0q-0.46875 -1.15625 -0.46875 -2.390625q0 -1.078125 0.359375 -2.078125q0.40625 -1.140625 1.265625 -2.296875l0.578125 0q-0.546875 0.953125 -0.71875 1.359375q-0.28125 0.625 -0.4375 1.3125q-0.203125 0.84375 -0.203125 1.71875q0 2.1875 1.359375 4.375l-0.578125 0zm1.3407135 -4.109375l0.828125 -0.078125q0.0625 0.5 0.28125 0.828125q0.21875 0.3125 0.671875 0.515625q0.453125 0.203125 1.015625 0.203125q0.515625 0 0.890625 -0.15625q0.390625 -0.15625 0.578125 -0.40625q0.1875 -0.265625 0.1875 -0.578125q0 -0.3125 -0.1875 -0.546875q-0.171875 -0.234375 -0.59375 -0.390625q-0.265625 -0.109375 -1.1875 -0.328125q-0.921875 -0.21875 -1.28125 -0.421875q-0.484375 -0.25 -0.71875 -0.609375q-0.234375 -0.375 -0.234375 -0.84375q0 -0.5 0.28125 -0.9375q0.296875 -0.4375 0.84375 -0.671875q0.546875 -0.234375 1.234375 -0.234375q0.734375 0 1.296875 0.25q0.578125 0.234375 0.875 0.703125q0.3125 0.453125 0.328125 1.046875l-0.84375 0.0625q-0.0625 -0.625 -0.46875 -0.953125q-0.390625 -0.328125 -1.15625 -0.328125q-0.796875 0 -1.171875 0.296875q-0.359375 0.296875 -0.359375 0.703125q0 0.359375 0.25 0.59375q0.265625 0.234375 1.328125 0.484375q1.078125 0.234375 1.484375 0.421875q0.578125 0.265625 0.859375 0.6875q0.28125 0.40625 0.28125 0.9375q0 0.53125 -0.3125 1.015625q-0.296875 0.46875 -0.875 0.734375q-0.5625 0.25 -1.28125 0.25q-0.90625 0 -1.515625 -0.265625q-0.609375 -0.265625 -0.96875 -0.78125q-0.34375 -0.53125 -0.359375 -1.203125zm6.9561615 4.109375l-0.59375 0q1.359375 -2.1875 1.359375 -4.375q0 -0.859375 -0.1875 -1.703125q-0.15625 -0.6875 -0.4375 -1.3125q-0.171875 -0.40625 -0.734375 -1.375l0.59375 0q0.859375 1.15625 1.265625 2.296875q0.34375 1.0 0.34375 2.078125q0 1.234375 -0.46875 2.390625q-0.46875 1.140625 -1.140625 2.0z" fill-rule="nonzero"/></g></svg>