<svg version="1.1" viewBox="0.0 0.0 589.7979002624672 357.2178477690289" fill="none" stroke="none" stroke-linecap="square" stroke-miterlimit="10" xmlns:xlink="http://www.w3.org/1999/xlink" xmlns="http://www.w3.org/2000/svg"><clipPath id="p.0"><path d="m0 0l589.7979 0l0 357.21783l-589.7979 0l0 -357.21783z" clip-rule="nonzero"/></clipPath><g clip-path="url(#p.0)"><path fill="#000000" fill-opacity="0.0" d="m0 0l589.7979 0l0 357.21783l-589.7979 0z" fill-rule="evenodd"/><path fill="#cfe2f3" d="m101.40945 174.70866l0 0c0 -15.055191 12.204651 -27.259842 27.25985 -27.259842l0 0c7.2297516 0 14.163406 2.8720093 19.27562 7.9842224c5.112213 5.112213 7.9842224 12.045853 7.9842224 19.27562l0 0c0 15.055191 -12.204651 27.259842 -27.259842 27.259842l0 0c-15.055199 0 -27.25985 -12.204651 -27.25985 -27.259842z" fill-rule="evenodd"/><path stroke="#000000" stroke-width="1.0" stroke-linejoin="round" stroke-linecap="butt" d="m101.40945 174.70866l0 0c0 -15.055191 12.204651 -27.259842 27.25985 -27.259842l0 0c7.2297516 0 14.163406 2.8720093 19.27562 7.9842224c5.112213 5.112213 7.9842224 12.045853 7.9842224 19.27562l0 0c0 15.055191 -12.204651 27.259842 -27.259842 27.259842l0 0c-15.055199 0 -27.25985 -12.204651 -27.25985 -27.259842z" fill-rule="evenodd"/><path fill="#000000" d="m119.70617 177.31616l1.75 -0.171875l-0.015625 0.46875q0 0.765625 0.34375 1.421875q0.359375 0.640625 1.171875 1.0q0.828125 0.34375 1.953125 0.34375q1.609375 0 2.453125 -0.703125q0.8437576 -0.703125 0.8437576 -1.609375q0 -0.625 -0.45313263 -1.140625q-0.453125 -0.515625 -2.484375 -1.390625q-1.578125 -0.6875 -2.140625 -1.046875q-0.90625 -0.59375 -1.34375 -1.28125q-0.421875 -0.703125 -0.421875 -1.59375q0 -1.03125 0.5625 -1.859375q0.5625 -0.828125 1.65625 -1.265625q1.09375 -0.4375 2.453125 -0.4375q1.640625 0 2.7500076 0.546875q1.125 0.546875 1.625 1.453125q0.515625 0.90625 0.515625 1.734375q0 0.09375 -0.015625 0.28125l-1.71875 0.140625q0 -0.578125 -0.109375 -0.890625q-0.171875 -0.5625 -0.5625 -0.9375q-0.375 -0.390625 -1.0468826 -0.609375q-0.671875 -0.234375 -1.5 -0.234375q-1.453125 0 -2.265625 0.65625q-0.625 0.5 -0.625 1.328125q0 0.484375 0.25 0.875q0.265625 0.390625 0.921875 0.765625q0.484375 0.265625 2.25 1.046875q1.453125 0.640625 2.0000076 1.0q0.71875 0.484375 1.109375 1.171875q0.390625 0.6875 0.390625 1.5625q0 1.078125 -0.65625 2.0q-0.65625 0.90625 -1.8281326 1.421875q-1.15625 0.5 -2.671875 0.5q-2.265625 0 -3.703125 -0.984375q-1.421875 -1.0 -1.4375 -3.5625z" fill-rule="nonzero"/><path fill="#000000" d="m131.71225 185.70679q0 -1.125 0.34375 -2.28125q0.34375 -1.171875 0.75 -1.875q0.40625 -0.703125 0.84375 -1.09375q0.453125 -0.390625 0.875 -0.578125q0.4375 -0.1875 0.953125 -0.1875q1.03125 0 1.703125 0.765625q0.6875 0.75 0.6875 2.1875q0 1.46875 -0.46875 2.921875q-0.5625 1.703125 -1.5625 2.5625q-0.765625 0.65625 -1.734375 0.65625q-1.0 0 -1.703125 -0.78125q-0.6875 -0.796875 -0.6875 -2.296875zm1.0625 0.28125q0 0.8125 0.28125 1.28125q0.375 0.640625 1.09375 0.640625q0.640625 0 1.15625 -0.578125q0.765625 -0.8125 1.140625 -2.375q0.375 -1.578125 0.375 -2.578125q0 -0.953125 -0.375 -1.375q-0.359375 -0.4375 -0.953125 -0.4375q-0.4375 0 -0.828125 0.234375q-0.375 0.21875 -0.71875 0.765625q-0.484375 0.765625 -0.859375 2.3125q-0.3125 1.3125 -0.3125 2.109375z" fill-rule="nonzero"/><path fill="#cfe2f3" d="m284.0656 297.09448l0 0c0 -15.055176 12.204651 -27.259827 27.259857 -27.259827l0 0c7.2297363 0 14.163391 2.8720093 19.275604 7.9842224c5.112213 5.112213 7.9842224 12.045837 7.9842224 19.275604l0 0c0 15.055206 -12.204651 27.259857 -27.259827 27.259857l0 0c-15.055206 0 -27.259857 -12.204651 -27.259857 -27.259857z" fill-rule="evenodd"/><path stroke="#000000" stroke-width="1.0" stroke-linejoin="round" stroke-linecap="butt" d="m284.0656 297.09448l0 0c0 -15.055176 12.204651 -27.259827 27.259857 -27.259827l0 0c7.2297363 0 14.163391 2.8720093 19.275604 7.9842224c5.112213 5.112213 7.9842224 12.045837 7.9842224 19.275604l0 0c0 15.055206 -12.204651 27.259857 -27.259827 27.259857l0 0c-15.055206 0 -27.259857 -12.204651 -27.259857 -27.259857z" fill-rule="evenodd"/><path fill="#000000" d="m302.36234 299.702l1.75 -0.171875l-0.015625 0.46875q0 0.765625 0.34375 1.421875q0.359375 0.640625 1.171875 1.0q0.828125 0.34375 1.953125 0.34375q1.609375 0 2.453125 -0.703125q0.84375 -0.703125 0.84375 -1.609375q0 -0.625 -0.453125 -1.140625q-0.453125 -0.515625 -2.484375 -1.390625q-1.578125 -0.6875 -2.140625 -1.046875q-0.90625 -0.59375 -1.34375 -1.28125q-0.421875 -0.703125 -0.421875 -1.59375q0 -1.03125 0.5625 -1.859375q0.5625 -0.828125 1.65625 -1.265625q1.09375 -0.4375 2.453125 -0.4375q1.640625 0 2.75 0.546875q1.125 0.546875 1.625 1.453125q0.515625 0.90625 0.515625 1.734375q0 0.09375 -0.015625 0.28125l-1.71875 0.140625q0 -0.578125 -0.109375 -0.890625q-0.171875 -0.5625 -0.5625 -0.9375q-0.375 -0.390625 -1.046875 -0.609375q-0.671875 -0.234375 -1.5 -0.234375q-1.453125 0 -2.265625 0.65625q-0.625 0.5 -0.625 1.328125q0 0.484375 0.25 0.875q0.265625 0.390625 0.921875 0.765625q0.484375 0.265625 2.25 1.046875q1.453125 0.640625 2.0 1.0q0.71875 0.484375 1.109375 1.171875q0.390625 0.6875 0.390625 1.5625q0 1.078125 -0.65625 2.0q-0.65625 0.90625 -1.828125 1.421875q-1.15625 0.5 -2.671875 0.5q-2.265625 0 -3.703125 -0.984375q-1.421875 -1.0 -1.4375 -3.5625z" fill-rule="nonzero"/><path fill="#000000" d="m314.1809 308.68637l1.0625 -0.140625q0.125 0.9375 0.53125 1.34375q0.421875 0.40625 1.09375 0.40625q0.8125 0 1.40625 -0.578125q0.59375 -0.59375 0.59375 -1.34375q0 -0.65625 -0.453125 -1.078125q-0.4375 -0.4375 -1.1875 -0.4375q-0.078125 0 -0.34375 0.03125l0.1875 -0.921875q0.15625 0.03125 0.296875 0.03125q0.953125 0 1.453125 -0.453125q0.515625 -0.46875 0.515625 -1.140625q0 -0.609375 -0.421875 -1.03125q-0.421875 -0.421875 -1.015625 -0.421875q-0.59375 0 -1.0625 0.4375q-0.46875 0.421875 -0.609375 1.203125l-1.078125 -0.21875q0.265625 -1.09375 1.015625 -1.6875q0.765625 -0.609375 1.8125 -0.609375q1.09375 0 1.765625 0.671875q0.671875 0.65625 0.671875 1.609375q0 0.703125 -0.375 1.234375q-0.359375 0.53125 -1.09375 0.875q0.53125 0.3125 0.78125 0.75q0.265625 0.4375 0.265625 1.0q0 1.1875 -0.90625 2.078125q-0.890625 0.875 -2.125 0.875q-1.21875 0 -1.96875 -0.671875q-0.734375 -0.6875 -0.8125 -1.8125z" fill-rule="nonzero"/><path fill="#cfe2f3" d="m284.0656 174.67717l0 0c0 -15.055206 12.204651 -27.259842 27.259857 -27.259842l0 0c7.2297363 0 14.163391 2.8720093 19.275604 7.9842224c5.112213 5.112213 7.9842224 12.045853 7.9842224 19.27562l0 0c0 15.055191 -12.204651 27.259842 -27.259827 27.259842l0 0c-15.055206 0 -27.259857 -12.204651 -27.259857 -27.259842z" fill-rule="evenodd"/><path stroke="#000000" stroke-width="1.0" stroke-linejoin="round" stroke-linecap="butt" d="m284.0656 174.67717l0 0c0 -15.055206 12.204651 -27.259842 27.259857 -27.259842l0 0c7.2297363 0 14.163391 2.8720093 19.275604 7.9842224c5.112213 5.112213 7.9842224 12.045853 7.9842224 19.27562l0 0c0 15.055191 -12.204651 27.259842 -27.259827 27.259842l0 0c-15.055206 0 -27.259857 -12.204651 -27.259857 -27.259842z" fill-rule="evenodd"/><path fill="#000000" d="m302.36234 177.28467l1.75 -0.171875l-0.015625 0.46875q0 0.765625 0.34375 1.421875q0.359375 0.640625 1.171875 1.0q0.828125 0.34375 1.953125 0.34375q1.609375 0 2.453125 -0.703125q0.84375 -0.703125 0.84375 -1.609375q0 -0.625 -0.453125 -1.140625q-0.453125 -0.515625 -2.484375 -1.390625q-1.578125 -0.6875 -2.140625 -1.046875q-0.90625 -0.59375 -1.34375 -1.28125q-0.421875 -0.703125 -0.421875 -1.59375q0 -1.03125 0.5625 -1.859375q0.5625 -0.828125 1.65625 -1.265625q1.09375 -0.4375 2.453125 -0.4375q1.640625 0 2.75 0.546875q1.125 0.546875 1.625 1.453125q0.515625 0.90625 0.515625 1.734375q0 0.09375 -0.015625 0.28125l-1.71875 0.140625q0 -0.578125 -0.109375 -0.890625q-0.171875 -0.5625 -0.5625 -0.9375q-0.375 -0.390625 -1.046875 -0.609375q-0.671875 -0.234375 -1.5 -0.234375q-1.453125 0 -2.265625 0.65625q-0.625 0.5 -0.625 1.328125q0 0.484375 0.25 0.875q0.265625 0.390625 0.921875 0.765625q0.484375 0.265625 2.25 1.046875q1.453125 0.640625 2.0 1.0q0.71875 0.484375 1.109375 1.171875q0.390625 0.6875 0.390625 1.5625q0 1.078125 -0.65625 2.0q-0.65625 0.90625 -1.828125 1.421875q-1.15625 0.5 -2.671875 0.5q-2.265625 0 -3.703125 -0.984375q-1.421875 -1.0 -1.4375 -3.5625z" fill-rule="nonzero"/><path fill="#000000" d="m314.22778 188.59717q0.171875 -0.796875 0.46875 -1.328125q0.296875 -0.546875 0.796875 -1.03125q0.5 -0.484375 1.921875 -1.609375q0.859375 -0.6875 1.171875 -1.015625q0.453125 -0.46875 0.65625 -0.9375q0.140625 -0.296875 0.140625 -0.671875q0 -0.609375 -0.4375 -1.03125q-0.421875 -0.4375 -1.0625 -0.4375q-0.625 0 -1.09375 0.4375q-0.453125 0.4375 -0.65625 1.390625l-1.078125 -0.15625q0.15625 -1.1875 0.921875 -1.859375q0.765625 -0.6875 1.890625 -0.6875q0.765625 0 1.375 0.3125q0.625 0.3125 0.921875 0.890625q0.3125 0.5625 0.3125 1.171875q0 0.890625 -0.625 1.703125q-0.390625 0.515625 -2.28125 2.015625q-0.8125 0.640625 -1.21875 1.0625q-0.390625 0.40625 -0.59375 0.765625l3.984375 0l-0.21875 1.015625l-5.296875 0z" fill-rule="nonzero"/><path fill="#cfe2f3" d="m284.0656 52.259842l0 0c0 -15.055195 12.204651 -27.259842 27.259857 -27.259842l0 0c7.2297363 0 14.163391 2.8720112 19.275604 7.9842224c5.112213 5.112213 7.9842224 12.04586 7.9842224 19.27562l0 0c0 15.055199 -12.204651 27.259842 -27.259827 27.259842l0 0c-15.055206 0 -27.259857 -12.204643 -27.259857 -27.259842z" fill-rule="evenodd"/><path stroke="#000000" stroke-width="1.0" stroke-linejoin="round" stroke-linecap="butt" d="m284.0656 52.259842l0 0c0 -15.055195 12.204651 -27.259842 27.259857 -27.259842l0 0c7.2297363 0 14.163391 2.8720112 19.275604 7.9842224c5.112213 5.112213 7.9842224 12.04586 7.9842224 19.27562l0 0c0 15.055199 -12.204651 27.259842 -27.259827 27.259842l0 0c-15.055206 0 -27.259857 -12.204643 -27.259857 -27.259842z" fill-rule="evenodd"/><path fill="#000000" d="m302.36234 54.86734l1.75 -0.171875l-0.015625 0.46875q0 0.765625 0.34375 1.421875q0.359375 0.640625 1.171875 1.0q0.828125 0.34375 1.953125 0.34375q1.609375 0 2.453125 -0.703125q0.84375 -0.703125 0.84375 -1.609375q0 -0.625 -0.453125 -1.140625q-0.453125 -0.515625 -2.484375 -1.390625q-1.578125 -0.6875 -2.140625 -1.046875q-0.90625 -0.59375 -1.34375 -1.28125q-0.421875 -0.703125 -0.421875 -1.59375q0 -1.03125 0.5625 -1.859375q0.5625 -0.828125 1.65625 -1.265625q1.09375 -0.4375 2.453125 -0.4375q1.640625 0 2.75 0.546875q1.125 0.546875 1.625 1.453125q0.515625 0.90625 0.515625 1.734375q0 0.09375 -0.015625 0.28125l-1.71875 0.140625q0 -0.578125 -0.109375 -0.890625q-0.171875 -0.5625 -0.5625 -0.9375q-0.375 -0.390625 -1.046875 -0.609375q-0.671875 -0.234375 -1.5 -0.234375q-1.453125 0 -2.265625 0.65625q-0.625 0.5 -0.625 1.328125q0 0.484375 0.25 0.875q0.265625 0.390625 0.921875 0.765625q0.484375 0.265625 2.25 1.046875q1.453125 0.640625 2.0 1.0q0.71875 0.484375 1.109375 1.171875q0.390625 0.6875 0.390625 1.5625q0 1.078125 -0.65625 2.0q-0.65625 0.90625 -1.828125 1.421875q-1.15625 0.5 -2.671875 0.5q-2.265625 0 -3.703125 -0.984375q-1.421875 -1.0 -1.4375 -3.5625z" fill-rule="nonzero"/><path fill="#000000" d="m316.4934 66.17984l1.40625 -6.71875q-0.921875 0.71875 -2.5625 1.140625l0.203125 -1.0q0.8125 -0.328125 1.609375 -0.84375q0.8125 -0.53125 1.203125 -0.921875q0.25 -0.25 0.46875 -0.59375l0.640625 0l-1.875 8.9375l-1.09375 0z" fill-rule="nonzero"/><path fill="#cfe2f3" d="m466.72177 170.22572l0 0c0 -15.055191 12.204651 -27.259842 27.259857 -27.259842l0 0c7.229767 0 14.163391 2.8720093 19.275635 7.9842224c5.1121826 5.112213 7.984192 12.045853 7.984192 19.27562l0 0c0 15.055191 -12.20462 27.259842 -27.259827 27.259842l0 0c-15.055206 0 -27.259857 -12.204651 -27.259857 -27.259842z" fill-rule="evenodd"/><path stroke="#000000" stroke-width="1.0" stroke-linejoin="round" stroke-linecap="butt" d="m466.72177 170.22572l0 0c0 -15.055191 12.204651 -27.259842 27.259857 -27.259842l0 0c7.229767 0 14.163391 2.8720093 19.275635 7.9842224c5.1121826 5.112213 7.984192 12.045853 7.984192 19.27562l0 0c0 15.055191 -12.20462 27.259842 -27.259827 27.259842l0 0c-15.055206 0 -27.259857 -12.204651 -27.259857 -27.259842z" fill-rule="evenodd"/><path fill="#000000" d="m485.0185 172.83322l1.75 -0.171875l-0.015625 0.46875q0 0.765625 0.34375 1.421875q0.359375 0.640625 1.171875 1.0q0.828125 0.34375 1.953125 0.34375q1.609375 0 2.453125 -0.703125q0.84375 -0.703125 0.84375 -1.609375q0 -0.625 -0.453125 -1.140625q-0.453125 -0.515625 -2.484375 -1.390625q-1.578125 -0.6875 -2.140625 -1.046875q-0.90625 -0.59375 -1.34375 -1.28125q-0.421875 -0.703125 -0.421875 -1.59375q0 -1.03125 0.5625 -1.859375q0.5625 -0.828125 1.65625 -1.265625q1.09375 -0.4375 2.453125 -0.4375q1.640625 0 2.75 0.546875q1.125 0.546875 1.625 1.453125q0.515625 0.90625 0.515625 1.734375q0 0.09375 -0.015625 0.28125l-1.71875 0.140625q0 -0.578125 -0.109375 -0.890625q-0.171875 -0.5625 -0.5625 -0.9375q-0.375 -0.390625 -1.046875 -0.609375q-0.671875 -0.234375 -1.5 -0.234375q-1.453125 0 -2.265625 0.65625q-0.625 0.5 -0.625 1.328125q0 0.484375 0.25 0.875q0.265625 0.390625 0.921875 0.765625q0.484375 0.265625 2.25 1.046875q1.453125 0.640625 2.0 1.0q0.71875 0.484375 1.109375 1.171875q0.390625 0.6875 0.390625 1.5625q0 1.078125 -0.65625 2.0q-0.65625 0.90625 -1.828125 1.421875q-1.15625 0.5 -2.671875 0.5q-2.265625 0 -3.703125 -0.984375q-1.421875 -1.0 -1.4375 -3.5625z" fill-rule="nonzero"/><path fill="#000000" d="m496.71207 184.14572l1.859375 -8.90625l5.78125 0l-0.203125 1.015625l-4.59375 0l-0.59375 2.84375l4.6875 0l-0.21875 1.015625l-4.6875 0l-0.84375 4.03125l-1.1875 0z" fill-rule="nonzero"/><path fill="#000000" fill-opacity="0.0" d="m128.6693 147.44882c0 -47.590553 77.700775 -95.18111 155.40157 -95.18111" fill-rule="evenodd"/><path stroke="#000000" stroke-width="1.0" stroke-linejoin="round" stroke-linecap="butt" d="m128.6693 147.44882c0 -23.79528 19.425186 -47.590553 48.56299 -65.43701c14.568893 -8.923225 31.565948 -16.359253 49.77707 -21.564468c9.10556 -2.6026077 18.514633 -4.6475143 28.07547 -6.041767c4.780411 -0.6971283 9.59877 -1.2315941 14.436111 -1.591774c2.4186707 -0.18009186 4.8420715 -0.31661606 7.267853 -0.40810776c0.30322266 -0.011440277 0.60650635 -0.022174835 0.9097595 -0.03219986l0.37304688 -0.011463165" fill-rule="evenodd"/><path fill="#000000" stroke="#000000" stroke-width="1.0" stroke-linecap="butt" d="m278.09756 54.013557l4.511566 -1.7228622l-4.5634766 -1.5801964z" fill-rule="evenodd"/><path fill="#000000" fill-opacity="0.0" d="m155.92914 174.70866c32.034058 0 48.05237 0.01574707 64.068115 0.03149414c16.015747 0.01574707 32.02893 0.03149414 64.05786 0.03149414" fill-rule="evenodd"/><path stroke="#000000" stroke-width="1.0" stroke-linejoin="round" stroke-linecap="butt" d="m155.92914 174.70866c32.034058 0 48.05237 0.01574707 64.068115 0.03149414c8.007874 0.007873535 16.015106 0.01574707 26.023987 0.021652222c5.004425 0.002960205 10.509277 0.00541687 16.764862 0.0071411133l15.269012 0.0019378662" fill-rule="evenodd"/><path fill="#000000" stroke="#000000" stroke-width="1.0" stroke-linecap="butt" d="m278.0549 176.42262l4.5382996 -1.6511536l-4.5378723 -1.6523132z" fill-rule="evenodd"/><path fill="#000000" fill-opacity="0.0" d="m128.6693 201.9685c0 47.55905 77.700775 95.1181 155.40157 95.1181" fill-rule="evenodd"/><path stroke="#000000" stroke-width="1.0" stroke-linejoin="round" stroke-linecap="butt" d="m128.6693 201.9685c0 23.779526 19.425186 47.55905 48.56299 65.39371c14.568893 8.917328 31.565948 16.34842 49.77707 21.550201c9.10556 2.6008606 18.514633 4.6444397 28.07547 6.0377502c4.780411 0.6966858 9.59877 1.2307739 14.436111 1.5907288c2.4186707 0.17996216 4.8420715 0.31640625 7.267853 0.4078369c0.30322266 0.011413574 0.60650635 0.022155762 0.9097595 0.032165527l0.37304688 0.011474609" fill-rule="evenodd"/><path fill="#000000" stroke="#000000" stroke-width="1.0" stroke-linecap="butt" d="m278.04565 298.6439l4.5634766 -1.5802307l-4.511566 -1.7228088z" fill-rule="evenodd"/><path fill="#000000" fill-opacity="0.0" d="m338.5853 52.259842c77.700806 0 155.40158 45.354332 155.40158 90.708664" fill-rule="evenodd"/><path stroke="#000000" stroke-width="1.0" stroke-linejoin="round" stroke-linecap="butt" d="m338.5853 52.259842c38.850403 0 77.700806 11.338585 106.83859 28.346458c14.568878 8.503937 26.709656 18.425194 35.20816 29.055115c4.2492676 5.3149643 7.587982 10.807091 9.864349 16.387794c1.1381836 2.7903595 2.0108337 5.6028595 2.5989075 8.426437c0.14697266 0.70588684 0.27624512 1.4124756 0.38739014 2.1195831l0.058776855 0.38983154" fill-rule="evenodd"/><path fill="#000000" stroke="#000000" stroke-width="1.0" stroke-linecap="butt" d="m491.8943 137.10768l1.9840698 4.402954l1.3102722 -4.6481934z" fill-rule="evenodd"/><path fill="#000000" fill-opacity="0.0" d="m338.5853 174.67717c32.034058 0 48.05237 -1.1102448 64.068115 -2.2204742c16.015747 -1.1102448 32.02893 -2.2204742 64.05786 -2.2204742" fill-rule="evenodd"/><path stroke="#000000" stroke-width="1.0" stroke-linejoin="round" stroke-linecap="butt" d="m338.5853 174.67717c32.034058 0 48.05237 -1.1102448 64.068115 -2.2204742c8.007874 -0.55511475 16.015106 -1.1102448 26.023987 -1.5265808c5.0044556 -0.2081604 10.509277 -0.38163757 16.764862 -0.503067c3.1277466 -0.06071472 6.443207 -0.108428955 9.9776 -0.1409607c0.88360596 -0.008132935 1.7809143 -0.015304565 2.6923828 -0.021514893l2.5990295 -0.01461792" fill-rule="evenodd"/><path fill="#000000" stroke="#000000" stroke-width="1.0" stroke-linecap="butt" d="m460.7151 171.90169l4.5343018 -1.6621246l-4.54187 -1.6413269z" fill-rule="evenodd"/><path fill="#000000" fill-opacity="0.0" d="m338.5853 297.09448c77.700806 0 155.40158 -49.81102 155.40158 -99.62204" fill-rule="evenodd"/><path stroke="#000000" stroke-width="1.0" stroke-linejoin="round" stroke-linecap="butt" d="m338.5853 297.09448c38.850403 0 77.700806 -12.452759 106.83859 -31.131897c14.568878 -9.339569 26.709656 -20.235718 35.20816 -31.910172c4.2492676 -5.8372345 7.587982 -11.869034 9.864349 -17.998123c1.1381836 -3.0645447 2.0108337 -6.153412 2.5989075 -9.25444c0.14697266 -0.77526855 0.27624512 -1.5512848 0.38739014 -2.3278656c0.027801514 -0.19413757 0.054473877 -0.38832092 0.079956055 -0.58255005l0.05380249 -0.42843628" fill-rule="evenodd"/><path fill="#000000" stroke="#000000" stroke-width="1.0" stroke-linecap="butt" d="m495.26505 203.56297l-1.3684082 -4.631424l-1.928772 4.427475z" fill-rule="evenodd"/><path fill="#000000" fill-opacity="0.0" d="m109.39367 193.98428c0 16.492188 -16.739677 35.738037 -33.481613 32.98439c-16.741928 -2.753662 -33.48611 -27.50682 -33.48161 -52.25998c0.004497528 -24.753174 16.757679 -49.506332 33.51311 -52.259987c16.755424 -2.7536545 33.513107 16.492195 33.513107 32.984398" fill-rule="evenodd"/><path stroke="#000000" stroke-width="1.0" stroke-linejoin="round" stroke-linecap="butt" d="m109.39367 193.98427c0 16.492218 -16.739677 35.738052 -33.481613 32.984406c-16.741928 -2.753662 -33.486107 -27.50682 -33.48161 -52.259995c0.004497528 -24.753159 16.757679 -49.50631 33.51311 -52.25997c8.377708 -1.3768234 16.75599 2.7462234 23.039833 9.275002c3.1419296 3.264389 5.7602386 7.1302185 7.5930862 11.210709c0.9164047 2.0402374 1.6364594 4.1341553 2.1274033 6.233383l0.069099426 0.30438232" fill-rule="evenodd"/><path fill="#000000" stroke="#000000" stroke-width="1.0" stroke-linecap="butt" d="m107.132 149.6604l2.158081 4.3203278l1.1238632 -4.696762z" fill-rule="evenodd"/><path fill="#000000" fill-opacity="0.0" d="m292.04984 32.984222c0 -16.492111 9.637787 -32.992096 19.275604 -32.984222c9.637787 0.007874016 19.275574 16.523607 19.275574 33.047215" fill-rule="evenodd"/><path stroke="#000000" stroke-width="1.0" stroke-linejoin="round" stroke-linecap="butt" d="m292.04984 32.984222c0 -16.492111 9.637817 -32.992096 19.275604 -32.984222c4.8189087 0.0039370083 9.637787 4.134839 13.251953 10.330208c1.8070984 3.097684 3.3130188 6.711485 4.3671265 10.583591c0.5270691 1.9360504 0.9411926 3.9366817 1.2235718 5.96966l0.02319336 0.1777649" fill-rule="evenodd"/><path fill="#000000" stroke="#000000" stroke-width="1.0" stroke-linecap="butt" d="m328.5434 27.174025l1.9577942 4.4147015l1.3379517 -4.6403027z" fill-rule="evenodd"/><path fill="#000000" fill-opacity="0.0" d="m292.04984 193.95279c0 16.492111 9.637787 32.97635 19.275604 32.984222c9.637787 0.007873535 19.275574 -16.460617 19.275574 -32.921234" fill-rule="evenodd"/><path stroke="#000000" stroke-width="1.0" stroke-linejoin="round" stroke-linecap="butt" d="m292.04984 193.95277c0 16.492126 9.637817 32.976364 19.275604 32.984238c4.8189087 0.0039367676 9.637787 -4.1112213 13.251953 -10.284943c1.8070984 -3.0868378 3.3130188 -6.688339 4.3671265 -10.546921c0.5270691 -1.9292908 0.9411926 -3.9228363 1.2235718 -5.948471l0.020324707 -0.15512085" fill-rule="evenodd"/><path fill="#000000" stroke="#000000" stroke-width="1.0" stroke-linecap="butt" d="m331.8362 200.11516l-1.3357239 -4.6409454l-1.9598999 4.4137573z" fill-rule="evenodd"/><path fill="#000000" fill-opacity="0.0" d="m292.04984 316.37012c0 16.492096 9.637787 32.97635 19.275604 32.984222c9.637787 0.007873535 19.275574 -16.460632 19.275574 -32.921234" fill-rule="evenodd"/><path stroke="#000000" stroke-width="1.0" stroke-linejoin="round" stroke-linecap="butt" d="m292.04984 316.3701c0 16.492126 9.637817 32.97638 19.275604 32.984253c4.8189087 0.0039367676 9.637787 -4.1112366 13.251953 -10.284943c1.8070984 -3.086853 3.3130188 -6.6883545 4.3671265 -10.546936c0.5270691 -1.9292908 0.9411926 -3.922821 1.2235718 -5.948456l0.020324707 -0.15512085" fill-rule="evenodd"/><path fill="#000000" stroke="#000000" stroke-width="1.0" stroke-linecap="butt" d="m331.8362 322.53247l-1.3357239 -4.64093l-1.9598999 4.4137573z" fill-rule="evenodd"/><path fill="#000000" fill-opacity="0.0" d="m513.25726 150.9501c0 -16.492203 14.9991455 -35.738045 29.996033 -32.98439c14.996887 2.7536545 29.991577 27.50682 29.996033 52.25998c0.0045166016 24.753159 -14.98114 49.506332 -29.964539 52.25998c-14.983398 2.753662 -29.964539 -16.492188 -29.964539 -32.98439" fill-rule="evenodd"/><path stroke="#000000" stroke-width="1.0" stroke-linejoin="round" stroke-linecap="butt" d="m513.25726 150.9501c0 -16.492203 14.9991455 -35.738052 29.996033 -32.98439c14.996887 2.7536545 29.991516 27.50682 29.996033 52.25998c0.0045166016 24.753174 -14.98114 49.506317 -29.964539 52.25998c-7.491699 1.3768158 -14.982849 -2.7462158 -20.601074 -9.274994c-2.809082 -3.2644043 -5.1499634 -7.1302185 -6.788513 -11.210693c-0.81933594 -2.0402527 -1.4630737 -4.1341705 -1.9019775 -6.2333984l-0.060180664 -0.29666138" fill-rule="evenodd"/><path fill="#000000" stroke="#000000" stroke-width="1.0" stroke-linecap="butt" d="m515.5761 195.30122l-2.1065674 -4.3456726l-1.1796265 4.6830597z" fill-rule="evenodd"/><path fill="#000000" fill-opacity="0.0" d="m184.87138 63.95538l54.5197 0l0 42.01575l-54.5197 0z" fill-rule="evenodd"/><path fill="#000000" d="m193.68388 94.57851l2.796875 -13.375l1.515625 0l-0.28125 1.34375q0.84375 -0.875 1.515625 -1.21875q0.671875 -0.34375 1.421875 -0.34375q1.375 0 2.28125 1.015625q0.921875 1.0 0.921875 2.875q0 1.515625 -0.5 2.765625q-0.5 1.234375 -1.234375 2.0q-0.71875 0.75 -1.46875 1.109375q-0.75 0.34375 -1.53125 0.34375q-1.75 0 -2.703125 -1.765625l-1.09375 5.25l-1.640625 0zm3.25 -7.65625q0 1.078125 0.15625 1.5q0.234375 0.59375 0.75 0.96875q0.515625 0.359375 1.203125 0.359375q1.421875 0 2.296875 -1.59375q0.875 -1.609375 0.875 -3.28125q0 -1.21875 -0.59375 -1.890625q-0.578125 -0.671875 -1.453125 -0.671875q-0.625 0 -1.171875 0.34375q-0.53125 0.328125 -1.0 0.984375q-0.453125 0.65625 -0.765625 1.609375q-0.296875 0.953125 -0.296875 1.671875z" fill-rule="nonzero"/><path fill="#000000" d="m204.79398 97.87538l1.859375 -8.90625l1.46875 0l0.890625 5.765625q0.171875 1.140625 0.234375 2.1875q0.375 -0.90625 1.234375 -2.4375l3.125 -5.515625l1.484375 0l-1.859375 8.90625l-1.171875 0l0.9375 -4.328125q0.3125 -1.5 0.921875 -3.359375q-0.390625 0.859375 -0.953125 1.859375l-3.3125 5.828125l-1.15625 0l-0.890625 -5.703125q-0.109375 -0.78125 -0.171875 -1.828125q-0.15625 1.171875 -0.296875 1.859375l-1.1875 5.671875l-1.15625 0z" fill-rule="nonzero"/><path fill="#000000" fill-opacity="0.0" d="m0 78.850395l115.874016 0l0 42.015747l-115.874016 0z" fill-rule="evenodd"/><path fill="#000000" d="m13.484375 105.77039l2.125 -10.078125q-1.375 1.0625 -3.84375 1.71875l0.296875 -1.5q1.234375 -0.484375 2.4375 -1.28125q1.203125 -0.796875 1.796875 -1.390625q0.359375 -0.359375 0.6875 -0.875l0.96875 0l-2.796875 13.40625l-1.671875 0zm6.750717 -4.015625l0.359375 -1.640625l5.015625 0l-0.328125 1.640625l-5.046875 0zm5.165802 7.71875l2.796875 -13.375l1.515625 0l-0.28125 1.34375q0.84375 -0.875 1.515625 -1.21875q0.671875 -0.34375 1.421875 -0.34375q1.375 0 2.28125 1.015625q0.921875 1.0 0.921875 2.875q0 1.515625 -0.5 2.765625q-0.5 1.234375 -1.234375 2.0q-0.71875 0.75 -1.46875 1.109375q-0.75 0.34375 -1.53125 0.34375q-1.75 0 -2.703125 -1.765625l-1.09375 5.25l-1.640625 0zm3.25 -7.65625q0 1.078125 0.15625 1.5q0.234375 0.59375 0.75 0.96875q0.515625 0.359375 1.203125 0.359375q1.421875 0 2.296875 -1.59375q0.875 -1.609375 0.875 -3.28125q0 -1.21875 -0.59375 -1.890625q-0.578125 -0.671875 -1.453125 -0.671875q-0.625 0 -1.171875 0.34375q-0.53125 0.328125 -1.0 0.984375q-0.453125 0.65625 -0.765625 1.609375q-0.296875 0.953125 -0.296875 1.671875z" fill-rule="nonzero"/><path fill="#000000" d="m36.510986 112.77039l1.859375 -8.90625l1.46875 0l0.890625 5.765625q0.171875 1.140625 0.234375 2.1875q0.375 -0.90625 1.234375 -2.4375l3.125 -5.515625l1.484375 0l-1.859375 8.90625l-1.171875 0l0.9375 -4.328125q0.3125 -1.5 0.921875 -3.359375q-0.390625 0.859375 -0.953125 1.859375l-3.3125 5.828125l-1.15625 0l-0.890625 -5.703125q-0.109375 -0.78125 -0.171875 -1.828125q-0.15625 1.171875 -0.296875 1.859375l-1.1875 5.671875l-1.15625 0z" fill-rule="nonzero"/><path fill="#000000" d="m47.183853 101.75477l0.359375 -1.640625l5.015625 0l-0.328125 1.640625l-5.046875 0zm5.165802 7.71875l2.796875 -13.375l1.515625 0l-0.28125 1.34375q0.84375 -0.875 1.515625 -1.21875q0.671875 -0.34375 1.421875 -0.34375q1.375 0 2.28125 1.015625q0.921875 1.0 0.921875 2.875q0 1.515625 -0.5 2.765625q-0.5 1.234375 -1.234375 2.0q-0.71875 0.75 -1.46875 1.109375q-0.75 0.34375 -1.53125 0.34375q-1.75 0 -2.703125 -1.765625l-1.09375 5.25l-1.640625 0zm3.25 -7.65625q0 1.078125 0.15625 1.5q0.234375 0.59375 0.75 0.96875q0.515625 0.359375 1.203125 0.359375q1.421875 0 2.296875 -1.59375q0.875 -1.609375 0.875 -3.28125q0 -1.21875 -0.59375 -1.890625q-0.578125 -0.671875 -1.453125 -0.671875q-0.625 0 -1.171875 0.34375q-0.53125 0.328125 -1.0 0.984375q-0.453125 0.65625 -0.765625 1.609375q-0.296875 0.953125 -0.296875 1.671875z" fill-rule="nonzero"/><path fill="#000000" d="m63.459747 112.77039l1.859375 -8.90625l2.75 0q0.765625 0 1.125 0.0625q0.59375 0.109375 1.0 0.375q0.40625 0.25 0.625 0.703125q0.234375 0.4375 0.234375 0.96875q0 0.734375 -0.40625 1.296875q-0.390625 0.5625 -1.234375 0.859375q0.734375 0.234375 1.078125 0.71875q0.359375 0.46875 0.359375 1.109375q0 0.734375 -0.421875 1.40625q-0.421875 0.671875 -1.125 1.046875q-0.6875 0.359375 -1.53125 0.359375l-4.3125 0zm2.25 -5.09375l1.8125 0q1.28125 0 1.84375 -0.40625q0.578125 -0.421875 0.578125 -1.21875q0 -0.375 -0.171875 -0.640625q-0.171875 -0.28125 -0.46875 -0.40625q-0.296875 -0.125 -1.109375 -0.125l-1.90625 0l-0.578125 2.796875zm-0.859375 4.078125l2.03125 0q0.8125 0 1.09375 -0.046875q0.5625 -0.09375 0.90625 -0.328125q0.359375 -0.234375 0.5625 -0.609375q0.203125 -0.390625 0.203125 -0.8125q0 -0.625 -0.390625 -0.953125q-0.390625 -0.328125 -1.5 -0.328125l-2.25 0l-0.65625 3.078125z" fill-rule="nonzero"/><path fill="#000000" d="m72.067825 101.75477l0.359375 -1.640625l5.015625 0l-0.328125 1.640625l-5.046875 0zm5.165802 7.71875l2.796875 -13.375l1.515625 0l-0.28125 1.34375q0.84375 -0.875 1.515625 -1.21875q0.671875 -0.34375 1.421875 -0.34375q1.375 0 2.28125 1.015625q0.921875 1.0 0.921875 2.875q0 1.515625 -0.5 2.765625q-0.5 1.234375 -1.234375 2.0q-0.71875 0.75 -1.46875 1.109375q-0.75 0.34375 -1.53125 0.34375q-1.75 0 -2.703125 -1.765625l-1.09375 5.25l-1.640625 0zm3.25 -7.65625q0 1.078125 0.15625 1.5q0.234375 0.59375 0.75 0.96875q0.515625 0.359375 1.203125 0.359375q1.421875 0 2.296875 -1.59375q0.875 -1.609375 0.875 -3.28125q0 -1.21875 -0.59375 -1.890625q-0.578125 -0.671875 -1.453125 -0.671875q-0.625 0 -1.171875 0.34375q-0.53125 0.328125 -1.0 0.984375q-0.453125 0.65625 -0.765625 1.609375q-0.296875 0.953125 -0.296875 1.671875z" fill-rule="nonzero"/><path fill="#000000" d="m88.671844 109.89539l1.171875 -0.109375l-0.015625 0.3125q0 0.515625 0.234375 0.9375q0.234375 0.421875 0.78125 0.65625q0.546875 0.234375 1.296875 0.234375q1.078125 0 1.640625 -0.453125q0.5625 -0.46875 0.5625 -1.078125q0 -0.421875 -0.296875 -0.765625q-0.3125 -0.34375 -1.671875 -0.921875q-1.046875 -0.453125 -1.421875 -0.703125q-0.609375 -0.390625 -0.890625 -0.84375q-0.28125 -0.46875 -0.28125 -1.078125q0 -0.671875 0.375 -1.21875q0.375 -0.5625 1.09375 -0.859375q0.734375 -0.296875 1.640625 -0.296875q1.09375 0 1.828125 0.375q0.75 0.359375 1.078125 0.96875q0.34375 0.609375 0.34375 1.15625q0 0.0625 0 0.1875l-1.140625 0.09375q0 -0.375 -0.078125 -0.59375q-0.109375 -0.375 -0.375 -0.625q-0.25 -0.25 -0.703125 -0.40625q-0.4375 -0.15625 -1.0 -0.15625q-0.96875 0 -1.5 0.4375q-0.421875 0.328125 -0.421875 0.890625q0 0.328125 0.171875 0.59375q0.171875 0.25 0.609375 0.5q0.328125 0.171875 1.5 0.6875q0.96875 0.421875 1.328125 0.671875q0.484375 0.328125 0.75 0.78125q0.265625 0.453125 0.265625 1.046875q0 0.71875 -0.453125 1.328125q-0.4375 0.609375 -1.21875 0.953125q-0.765625 0.328125 -1.765625 0.328125q-1.515625 0 -2.484375 -0.65625q-0.953125 -0.671875 -0.953125 -2.375z" fill-rule="nonzero"/><path fill="#000000" fill-opacity="0.0" d="m566.9921 142.9685l54.519714 0l0 42.015747l-54.519714 0z" fill-rule="evenodd"/><path fill="#000000" d="m580.4765 169.8885l2.125 -10.078125q-1.375 1.0625 -3.84375 1.71875l0.296875 -1.5q1.234375 -0.484375 2.4375 -1.28125q1.203125 -0.796875 1.796875 -1.390625q0.359375 -0.359375 0.6875 -0.875l0.96875 0l-2.796875 13.40625l-1.671875 0z" fill-rule="nonzero"/></g></svg>